<svg width="24" height="24" viewBox="0 0 24 24" fill="none" xmlns="http://www.w3.org/2000/svg">
<g clip-path="url(#clip0)">
<path d="M0 4.48047V19.2431H7.1554C7.8167 19.2431 8.4632 19.1599 9.0851 18.9951C9.7139 18.8297 10.2756 18.5748 10.7643 18.229C11.2493 17.8859 11.6427 17.441 11.932 16.8921C12.2182 16.3501 12.3614 15.7051 12.3614 14.9567C12.3614 14.0335 12.1424 13.2458 11.6939 12.5877C11.2479 11.9335 10.5752 11.4738 9.6665 11.2131C10.3339 10.897 10.8323 10.4904 11.1725 9.99537C11.5096 9.49867 11.6783 8.87797 11.6783 8.13467C11.6783 7.44737 11.5656 6.86697 11.3408 6.40287C11.1102 5.93197 10.7888 5.55767 10.3776 5.27627C9.96 4.99547 9.4656 4.79057 8.8864 4.66777C8.3037 4.54167 7.6664 4.48057 6.96 4.48057L0 4.48047ZM15.6674 5.47077V6.92747H21.6518V5.47077H15.6674ZM3.2509 6.99477H6.2916C6.5789 6.99477 6.8599 7.01517 7.1275 7.06787C7.4003 7.11447 7.6355 7.20187 7.8435 7.32737C8.0531 7.44787 8.2189 7.62037 8.3445 7.84057C8.4653 8.06087 8.5251 8.34437 8.5251 8.68797C8.5251 9.30687 8.344 9.75817 7.97 10.0306C7.5922 10.3081 7.1157 10.4453 6.5396 10.4453H3.2509V6.99477ZM18.7959 8.25117C17.9769 8.25117 17.2372 8.39737 16.5665 8.68717C15.896 8.97757 15.3202 9.37467 14.8347 9.87867C14.3501 10.3798 13.9812 10.9773 13.7147 11.6696C13.4535 12.3596 13.3205 13.1062 13.3205 13.9056C13.3205 14.7324 13.4489 15.4947 13.704 16.1842C13.962 16.8765 14.3238 17.4664 14.7896 17.9652C15.2676 18.4619 15.8356 18.8436 16.5156 19.1149C17.1962 19.3839 17.9538 19.5197 18.7959 19.5197C20.0039 19.5197 21.0405 19.2426 21.8908 18.6871C22.7507 18.1343 23.381 17.2161 23.7966 15.9297H21.2116C21.1116 16.2604 20.8526 16.5787 20.4276 16.8764C19.9981 17.1752 19.4859 17.3256 18.8936 17.3256C18.0703 17.3256 17.4348 17.1088 16.9951 16.6794C16.5539 16.25 16.2684 15.4505 16.2684 14.6052H23.9814C24.0366 13.7761 23.9692 12.9834 23.7769 12.2255C23.5831 11.4654 23.2736 10.789 22.8376 10.1965C22.4021 9.60337 21.8472 9.12977 21.1706 8.77997C20.4918 8.42567 19.7003 8.25117 18.7959 8.25117ZM18.7072 10.4682C19.4281 10.4682 20.0198 10.6774 20.3684 11.0636C20.7187 11.4526 20.9749 12.0068 21.045 12.7551H16.2684C16.282 12.5466 16.3264 12.3107 16.4023 12.0506C16.4772 11.7838 16.6062 11.5342 16.7956 11.2976C16.9861 11.065 17.2358 10.8666 17.5396 10.708C17.8505 10.5472 18.2382 10.4683 18.7072 10.4683V10.4682ZM3.251 12.6641H6.7844C7.484 12.6641 8.0526 12.8243 8.4792 13.1477C8.9051 13.4757 9.1197 14.0162 9.1197 14.7769C9.1197 15.1654 9.0565 15.4863 8.9251 15.7335C8.7941 15.983 8.6145 16.1801 8.3971 16.3231C8.1799 16.4722 7.9218 16.5729 7.631 16.6368C7.3448 16.7007 7.0405 16.7288 6.7195 16.7288H3.2509L3.251 12.6641Z" fill="#F2994A"/>
</g>
<defs>
<clipPath id="clip0">
<rect width="24" height="24" fill="white"/>
</clipPath>
</defs>
</svg>
