<svg width="26" height="26" viewBox="0 0 26 26" fill="none" xmlns="http://www.w3.org/2000/svg">
<path d="M10.3594 11.5781V7.56921H13.2519C14.833 7.56921 15.7576 8.31184 15.7576 9.57934C15.7576 10.8826 14.7761 11.5781 12.8911 11.5781H10.3594ZM10.3594 17.6913H13.4436C15.3676 17.6913 16.3849 16.9113 16.3849 15.4537C16.3849 14.0156 15.3286 13.2632 13.3201 13.2632H10.3594V17.6913V17.6913Z" fill="black"/>
<path d="M6.50401 0C4.78011 0 3.12681 0.68482 1.90782 1.90381C0.688833 3.12279 0.00401306 4.77609 0.00401306 6.5V19.5C0.00401306 21.2239 0.688833 22.8772 1.90782 24.0962C3.12681 25.3152 4.78011 26 6.50401 26H19.504C21.2279 26 22.8812 25.3152 24.1002 24.0962C25.3192 22.8772 26.004 21.2239 26.004 19.5V6.5C26.004 4.77609 25.3192 3.12279 24.1002 1.90381C22.8812 0.68482 21.2279 0 19.504 0L6.50401 0V0ZM8.22651 19.5V5.76063H13.7499C16.3288 5.76063 17.8823 7.07525 17.8823 9.18938C17.8823 10.6259 16.826 11.9113 15.4724 12.1404V12.3029C17.3298 12.493 18.5664 13.8158 18.5664 15.6065C18.5664 18.0245 16.8049 19.5 13.8734 19.5H8.22651V19.5Z" fill="black"/>
</svg>
