<svg width="23" height="25" viewBox="0 0 23 25" fill="none" xmlns="http://www.w3.org/2000/svg">
<path d="M0.860626 0.416626L2.79638 22.1594L11.4879 24.5833L20.2024 22.1509L22.1394 0.416626H0.860626ZM18.1168 5.39858L17.4716 12.6413L17.474 12.6812L17.4716 12.7706L17.0124 17.8335L16.9629 18.2843L11.5 19.7947L11.4952 19.7995L6.04317 18.2794L5.67342 14.0925H8.34625L8.53596 16.2216L11.5 17.0252L14.4737 16.2108L14.7879 12.744H8.57221L8.51904 12.158L8.397 10.7853L8.33417 10.0483H15.0259L15.27 7.35125H5.07408L5.02092 6.76521L4.90008 5.39133L4.83604 4.65425H18.1809L18.1168 5.39858Z" fill="black"/>
</svg>
