<svg width="30" height="24" viewBox="0 0 30 24" fill="none" xmlns="http://www.w3.org/2000/svg">
<path d="M28.6797 2.72021C28.6797 2.68021 28.6797 2.60021 28.6797 2.56021C28.6797 2.52021 28.6797 2.48019 28.6797 2.44019C28.6797 2.40019 28.6497 2.36023 28.6497 2.28023C28.6497 2.24023 28.6197 2.16021 28.6197 2.12021C28.6197 2.08021 28.5897 2.04019 28.5597 2.0002C28.5297 1.9602 28.5297 1.88019 28.4997 1.84019V1.8002C28.4697 1.7602 28.4697 1.76021 28.4397 1.72021C28.4097 1.68021 28.3797 1.6402 28.3497 1.6002C28.3197 1.5602 28.2897 1.52021 28.2597 1.52021C28.2297 1.48021 28.1997 1.44019 28.1697 1.44019C28.1397 1.40019 28.1097 1.40021 28.0797 1.36021C28.0497 1.32021 28.0197 1.32022 27.9897 1.28022C27.9597 1.28022 27.8997 1.24019 27.8697 1.24019C27.8397 1.24019 27.8097 1.2002 27.7497 1.2002C27.7197 1.2002 27.6597 1.2002 27.6297 1.2002C27.5997 1.2002 27.5697 1.2002 27.5397 1.2002H2.33968C2.30968 1.2002 2.27971 1.2002 2.24971 1.2002C2.21971 1.2002 2.15969 1.2002 2.12969 1.2002C2.09969 1.2002 2.06969 1.24019 2.00969 1.24019C1.97969 1.24019 1.91968 1.28022 1.88968 1.28022C1.85968 1.28022 1.82971 1.32021 1.79971 1.36021C1.76971 1.40021 1.73969 1.40019 1.70969 1.44019C1.67969 1.48019 1.64971 1.48021 1.61971 1.52021C1.58971 1.56021 1.55969 1.6002 1.52969 1.6002C1.4997 1.6402 1.46968 1.68021 1.43968 1.72021C1.40968 1.76021 1.4097 1.7602 1.3797 1.8002V1.84019C1.3497 1.88019 1.31971 1.9602 1.31971 2.0002C1.28971 2.04019 1.28969 2.08021 1.25969 2.12021C1.22969 2.16021 1.2297 2.20023 1.2297 2.28023C1.2297 2.32023 1.19971 2.36019 1.19971 2.44019C1.19971 2.48019 1.19971 2.52021 1.19971 2.56021C1.19971 2.60021 1.19971 2.68021 1.19971 2.72021V2.76021V21.1603C1.19971 22.0403 1.73971 22.7603 2.39971 22.7603H27.5997C28.2597 22.7603 28.7997 22.0403 28.7997 21.1603L28.6797 2.72021C28.6797 2.76021 28.6797 2.72021 28.6797 2.72021ZM23.8497 4.36021L14.8797 13.2402L5.90969 4.36021H23.8497ZM3.47969 19.5602V5.96021L14.1597 16.5202C14.3697 16.7202 14.6097 16.8402 14.8797 16.8402C15.1497 16.8402 15.3897 16.7202 15.5997 16.5202L26.2797 5.96021V19.5602H3.47969Z" fill="black"/>
</svg>
