<svg width="30" height="30" viewBox="0 0 30 30" fill="none" xmlns="http://www.w3.org/2000/svg">
<path d="M19.165 10.835C20.2478 10.8025 21.2754 10.3495 22.0299 9.57206C22.7843 8.79464 23.2063 7.75392 23.2063 6.6706C23.2063 5.58728 22.7843 4.54657 22.0299 3.76914C21.2754 2.99171 20.2478 2.53872 19.165 2.50623H10.835C9.75216 2.53872 8.72457 2.99171 7.97013 3.76914C7.21569 4.54657 6.79372 5.58728 6.79372 6.6706C6.79372 7.75392 7.21569 8.79464 7.97013 9.57206C8.72457 10.3495 9.75216 10.8025 10.835 10.835C9.7427 10.8539 8.70154 11.3011 7.93577 12.0802C7.17 12.8594 6.74091 13.9081 6.74091 15.0006C6.74091 16.0931 7.17 17.1418 7.93577 17.921C8.70154 18.7001 9.7427 19.1473 10.835 19.1662C9.74803 19.1929 8.71455 19.6434 7.9552 20.4215C7.19584 21.1997 6.77079 22.2439 6.77079 23.3312C6.77079 24.4185 7.19584 25.4627 7.9552 26.2409C8.71455 27.0191 9.74803 27.4696 10.835 27.4962C11.9396 27.4956 12.9988 27.0564 13.7798 26.2752C14.5608 25.4939 14.9997 24.4346 15 23.33V10.835H19.165Z" fill="black"/>
<path d="M19.165 19.165C21.4653 19.165 23.33 17.3002 23.33 15C23.33 12.6997 21.4653 10.835 19.165 10.835C16.8647 10.835 15 12.6997 15 15C15 17.3002 16.8647 19.165 19.165 19.165Z" fill="black"/>
</svg>
