<svg width="28" height="28" viewBox="0 0 28 28" fill="none" xmlns="http://www.w3.org/2000/svg">
<path d="M0 0H28V28H0V0ZM25.7075 21.3238C25.5027 20.0428 24.668 18.9718 22.2031 17.9699C21.3465 17.5691 20.3893 17.2865 20.1066 16.639C20.0016 16.2558 19.9833 16.0466 20.0515 15.8182C20.2291 15.0614 21.1181 14.8382 21.8199 15.0482C22.2758 15.1891 22.6949 15.5356 22.9591 16.0965C24.1666 15.3081 24.1666 15.3081 25.0057 14.784C24.6916 14.2966 24.5368 14.0822 24.3224 13.8775C23.5883 13.0524 22.6091 12.6332 21.0184 12.67L20.1932 12.775C19.4049 12.9666 18.6533 13.3858 18.1974 13.9466C16.8709 15.4508 17.2541 18.0757 18.8624 19.1651C20.4531 20.3542 22.7815 20.6141 23.0825 21.7359C23.3607 23.1035 22.0666 23.541 20.7856 23.3809C19.8424 23.1709 19.3183 22.6975 18.739 21.8225L16.6058 23.0484C16.8473 23.6092 17.1299 23.8507 17.549 24.3425C19.5772 26.3891 24.654 26.2841 25.5649 23.1709C25.5964 23.0659 25.8431 22.3458 25.6515 21.2476L25.7075 21.3238ZM15.2259 12.8695H12.6053C12.6053 15.1296 12.5913 17.3766 12.5913 19.642C12.5913 21.0779 12.6639 22.3991 12.432 22.8051C12.0444 23.6075 11.0556 23.5069 10.6041 23.366C10.1439 23.1385 9.90675 22.8235 9.63813 22.3676C9.56025 22.2442 9.506 22.1401 9.48763 22.1401L7.35963 23.4526C7.71488 24.1867 8.23463 24.8202 8.90488 25.221C9.90325 25.8177 11.2429 26.0094 12.6464 25.6952C13.5581 25.431 14.3465 24.8885 14.756 24.0503C15.3528 22.9653 15.225 21.6352 15.2206 20.1442C15.2346 17.7467 15.2206 15.3501 15.2206 12.9342L15.2259 12.8695Z" fill="black"/>
</svg>
