<svg width="24" height="30" viewBox="0 0 24 30" fill="none" xmlns="http://www.w3.org/2000/svg">
<path d="M19.7229 3.5702C17.7687 2.0402 15.0258 1.2002 12.0429 1.2002C9.06007 1.2002 6.31722 2.0402 4.36293 3.5702C1.99722 5.4302 0.728653 8.2202 0.728653 11.6702C0.728653 19.2003 10.6373 28.0503 11.083 28.4103C11.3573 28.6503 11.7001 28.7703 12.0429 28.7703C12.3858 28.7703 12.7629 28.6503 13.0029 28.4103C13.4144 28.0503 23.3571 19.2003 23.3571 11.6702C23.3229 8.2202 22.0886 5.4302 19.7229 3.5702ZM12.0087 25.8301C11.0829 24.9301 9.60868 23.4301 8.16868 21.6301C5.08297 17.7901 3.43723 14.3702 3.43723 11.7002C3.43723 4.2002 9.98581 3.6002 12.0087 3.6002C19.963 3.6002 20.58 9.8102 20.58 11.7002C20.58 16.9801 14.4429 23.4901 12.0087 25.8301ZM12.0087 6.3902C8.99152 6.3902 6.55722 8.5802 6.55722 11.2502C6.55722 13.9202 8.99152 16.1103 12.0087 16.1103C15.0258 16.1103 17.4602 13.9202 17.4602 11.2502C17.4602 8.5502 15.0258 6.3902 12.0087 6.3902ZM12.0087 13.9802C10.3287 13.9802 8.95722 12.7502 8.95722 11.2202C8.95722 9.6902 10.3287 8.4602 12.0087 8.4602C13.6887 8.4602 15.0601 9.6902 15.0601 11.2202C15.0601 12.7502 13.6887 13.9802 12.0087 13.9802Z" fill="black"/>
</svg>
