<svg width="134" height="122" viewBox="0 0 134 122" fill="none" xmlns="http://www.w3.org/2000/svg">
<path d="M122.987 13.6409C116.012 5.69974 105.887 0.300015 95.299 0.0113607C88.0124 -0.186305 80.6217 2.20137 74.8976 6.71003C72.6326 8.49216 70.3297 12.9318 67.7937 13.8542C67.5102 13.9578 67.2235 14.0205 66.9431 14.0519C66.6628 14.0205 66.3761 13.9578 66.0926 13.8542C63.5566 12.9318 61.2537 8.49216 58.9886 6.71003C53.2645 2.20451 45.8739 -0.183167 38.5872 0.0113607C27.9991 0.296878 17.874 5.6966 10.8992 13.6409C-0.413515 26.5142 -3.25194 46.1522 3.94966 61.683C8.84838 72.2503 17.6472 80.4487 26.3956 88.1671C38.6755 99.0042 51.2861 109.474 64.1992 119.555C65.3176 120.43 66.1713 121.067 66.9463 121.46C67.7213 121.067 68.575 120.43 69.6934 119.555C82.6064 109.471 95.214 99.001 107.497 88.1671C116.245 80.4487 125.041 72.2503 129.943 61.683C137.141 46.149 134.3 26.5142 122.987 13.6409Z" fill="#DD242A"/>
</svg>
