<svg width="34" height="35" viewBox="0 0 34 35" fill="none" xmlns="http://www.w3.org/2000/svg">
<path d="M28.9031 7.72921C28.874 7.70004 28.874 7.70005 28.8448 7.67089L25.724 4.92918C25.2865 4.52084 24.674 4.31671 24.0323 4.37504C23.449 4.43337 22.924 4.66668 22.5156 5.07501C22.4865 5.10418 22.4573 5.13336 22.4281 5.16252L19.3365 9.04171C18.5198 9.91671 18.549 11.2584 19.3948 12.1042C19.4531 12.1625 19.5115 12.2209 19.5698 12.25L21.1448 13.3001C21.0281 13.8542 20.2115 15.4292 17.324 18.3167C14.4365 21.2042 12.8614 22.0209 12.3072 22.1375L11.2572 20.5625C11.2281 20.5042 11.1697 20.4459 11.1114 20.3875C10.2656 19.5417 8.92391 19.5417 8.04891 20.3292L4.16975 23.4209C4.14058 23.45 4.11143 23.4792 4.08226 23.5084C3.20726 24.3834 3.14893 25.8417 3.93643 26.6875L6.67808 29.8084C6.70725 29.8375 6.70725 29.8375 6.73642 29.8667C7.26142 30.3917 8.07808 30.5959 8.98225 30.5959C10.5864 30.5959 12.4239 29.9542 13.3864 29.575C15.2531 28.8459 18.899 27.0667 22.5156 23.45C25.199 20.7667 27.3573 17.5292 28.6406 14.3209C29.1948 12.8626 30.4198 9.24587 28.9031 7.72921ZM20.8531 21.8459C15.4573 27.2417 9.39058 28.7292 8.36975 28.2042L5.71558 25.1709L9.50725 22.1667L10.5281 23.7125C10.5572 23.7417 10.5572 23.7709 10.5864 23.8C10.9364 24.2375 11.4322 24.4709 12.0156 24.5C12.5697 24.5292 14.2906 24.6167 18.9281 19.9792C20.0656 18.8417 23.5656 15.3417 23.449 13.0667C23.4198 12.4834 23.1573 11.9875 22.749 11.6375C22.7198 11.6083 22.6906 11.5792 22.6615 11.5792L21.1156 10.5584L24.1198 6.76669L27.1531 9.42089C27.7365 10.3834 26.249 16.45 20.8531 21.8459Z" fill="black"/>
</svg>
