<svg width="35" height="35" viewBox="0 0 35 35" fill="none" xmlns="http://www.w3.org/2000/svg">
<path d="M17.5 14.3784C15.7795 14.3784 14.3784 15.7795 14.3784 17.5C14.3784 19.2204 15.7795 20.6215 17.5 20.6215C19.2205 20.6215 20.6216 19.2204 20.6216 17.5C20.6216 15.7795 19.2205 14.3784 17.5 14.3784ZM8.76094 23.7037L8.07188 23.5331C2.94437 22.2337 0 20.0353 0 17.4945C0 14.9537 2.94547 12.7553 8.07188 11.4559L8.76094 11.2853L8.95453 11.9689C9.47469 13.7594 10.1397 15.5046 10.943 17.1872L11.0906 17.4945L10.943 17.8073C10.138 19.4892 9.47295 21.2345 8.95453 23.0256L8.76094 23.7037ZM7.75359 13.0506C3.85656 14.1444 1.46453 15.8244 1.46453 17.4945C1.46453 19.1647 3.85766 20.8381 7.75359 21.9384C8.23118 20.421 8.80773 18.9365 9.47953 17.4945C8.80679 16.0529 8.23022 14.5684 7.75359 13.0506V13.0506ZM26.2391 23.7037L26.0455 23.0201C25.5262 21.2311 24.8612 19.4877 24.057 17.8073L23.9094 17.4945L24.057 17.1817C24.862 15.4998 25.527 13.7545 26.0455 11.9634L26.2391 11.2853L26.9281 11.4559C32.0556 12.7553 35 14.9537 35 17.4945C35 20.0353 32.0545 22.2337 26.9281 23.5331L26.2391 23.7037ZM25.5205 17.4945C26.1945 18.9355 26.7711 20.4202 27.2464 21.9384C31.1489 20.8392 33.5355 19.1647 33.5355 17.4945C33.5355 15.8244 31.1423 14.1509 27.2464 13.0506C26.7677 14.5676 26.1912 16.052 25.5205 17.4945ZM7.74156 13.0451L7.54797 12.3615C6.10641 7.27998 6.545 3.63451 8.75 2.36357C10.9145 1.1156 14.3839 2.59107 18.0239 6.32841L18.5194 6.83591L18.0239 7.34341C16.7313 8.68831 15.5501 10.1361 14.4922 11.6725L14.2931 11.9514L13.9508 11.9798C12.0897 12.1267 10.2437 12.4241 8.43063 12.869L7.74156 13.0451ZM10.5098 3.37857C10.1172 3.37857 9.76938 3.45841 9.47844 3.62904C8.03141 4.46685 7.77547 7.37185 8.77188 11.2908C10.3266 10.943 11.9024 10.6975 13.4892 10.5558C14.4028 9.25462 15.4017 8.01559 16.4795 6.84685C14.2067 4.63091 12.0531 3.37748 10.5098 3.37748V3.37857ZM24.4956 33.0684C24.4902 33.0684 24.4902 33.0684 24.4956 33.0684C22.4164 33.0684 19.7444 31.5076 16.9761 28.6595L16.4806 28.152L16.9761 27.6445C18.2687 26.2996 19.4499 24.8518 20.5078 23.3154L20.7014 23.0365L21.0437 23.0026C22.9072 22.8607 24.7555 22.5632 26.5694 22.1134L27.2584 21.9428L27.452 22.6264C28.8936 27.7079 28.455 31.3479 26.25 32.6178C25.7169 32.9242 25.1104 33.0796 24.4956 33.0673V33.0684ZM18.5194 28.1411C20.7922 30.357 22.9458 31.6104 24.4891 31.6104H24.4945C24.8817 31.6104 25.2295 31.5251 25.5205 31.36C26.9675 30.5222 27.23 27.6172 26.227 23.6983C24.6726 24.0464 23.0966 24.2901 21.5097 24.4278C20.5962 25.7307 19.5972 26.9715 18.5194 28.1422V28.1411ZM27.2584 13.0451L26.5694 12.869C24.7542 12.4256 22.9064 12.1282 21.0437 11.9798L20.7014 11.9514L20.5078 11.6725C19.4499 10.1361 18.2687 8.68831 16.9761 7.34341L16.4806 6.83591L16.9761 6.32841C20.6161 2.59107 24.0855 1.1156 26.25 2.36357C28.455 3.63341 28.8936 7.27998 27.452 12.3615L27.2584 13.0451ZM21.5108 10.5558C23.0976 10.6971 24.6735 10.9426 26.2281 11.2908C27.2311 7.37185 26.9686 4.46576 25.5216 3.62904C24.08 2.79779 21.3686 4.0731 18.5205 6.84795C19.5953 8.01919 20.5941 9.25803 21.5108 10.5569V10.5558ZM10.5098 33.0684C9.89406 33.0794 9.28484 32.9262 8.75 32.6189C6.545 31.349 6.10641 27.7079 7.54797 22.6275L7.74156 21.9439L8.43063 22.1145C10.1172 22.5422 11.9744 22.8375 13.9508 23.0037L14.2931 23.0376L14.4867 23.3165C15.5447 24.8529 16.7258 26.3007 18.0184 27.6456L18.5139 28.1531L18.0184 28.6606C15.2556 31.5087 12.5836 33.0695 10.5098 33.0695V33.0684ZM8.77297 23.6983C7.77 27.6172 8.0325 30.5233 9.47953 31.36C10.9211 32.1803 13.627 30.9159 16.4806 28.1411C15.4028 26.9705 14.4038 25.7296 13.4903 24.4267C11.9033 24.2894 10.3273 24.0457 8.77297 23.6972V23.6983ZM17.5 24.6148C16.298 24.6148 15.0675 24.5634 13.8316 24.4606L13.4892 24.4322L13.2902 24.1478C12.592 23.1447 11.9363 22.1127 11.3247 21.0547C10.7118 19.9965 10.1436 18.9131 9.62172 17.8073L9.47406 17.4945L9.62172 17.1817C10.6674 14.9705 11.8944 12.8498 13.2902 10.8412L13.4892 10.5569L13.8316 10.5284C16.2729 10.3228 18.7271 10.3228 21.1684 10.5284L21.5108 10.5569L21.7098 10.8412C23.1074 12.8487 24.3345 14.9696 25.3783 17.1817L25.5259 17.4945L25.3783 17.8073C24.3366 20.0206 23.1094 22.1416 21.7098 24.1478L21.5108 24.4322L21.1684 24.4606C19.9483 24.5627 18.7244 24.6142 17.5 24.6148V24.6148ZM14.2986 23.0311C16.4522 23.1962 18.5478 23.1962 20.7069 23.0311C21.911 21.2678 22.9811 19.4168 23.9083 17.4934C22.9851 15.5669 21.9128 13.7154 20.7014 11.9558C18.5703 11.7906 16.4297 11.7906 14.2986 11.9558C13.0863 13.7148 12.014 15.5664 11.0917 17.4934C12.0191 19.4177 13.0912 21.2689 14.2986 23.0311V23.0311Z" fill="black"/>
</svg>
