<svg width="26" height="26" viewBox="0 0 26 26" fill="none" xmlns="http://www.w3.org/2000/svg">
<path d="M13 0.5C19.9025 0.5 25.5 6.0975 25.5 13C25.5 19.9025 19.9025 25.5 13 25.5C6.0975 25.5 0.5 19.9025 0.5 13C0.5 6.0975 6.0975 0.5 13 0.5ZM10.5162 17.165C10.6987 17.8363 10.6787 18.4638 10.49 19.0313L10.4225 19.2188C10.2646 19.5967 10.0416 19.9441 9.76375 20.245C9.03625 21.0363 8.02125 21.335 7.58625 21.0838C7.1175 20.81 7.35125 19.6938 8.195 18.8025C9.1025 17.8463 10.4025 17.23 10.4025 17.23V17.2275L10.5162 17.165V17.165ZM20.8387 5.85125C20.2737 3.63 16.5925 2.89875 13.1075 4.1375C11.0375 4.87375 8.79125 6.03125 7.17875 7.54125C5.25875 9.33375 4.95375 10.8963 5.07875 11.5488C5.5225 13.8525 8.68 15.3588 9.97875 16.4763V16.4825C9.595 16.6688 6.79375 18.075 6.13875 19.53C5.435 21.0613 6.24875 22.1563 6.78 22.295C8.42125 22.7488 10.1075 21.92 11.015 20.5775C11.8887 19.2638 11.8125 17.5775 11.4362 16.7488C11.9525 16.6088 12.56 16.5463 13.3412 16.6413C15.53 16.89 15.9675 18.2663 15.8712 18.8288C15.7787 19.39 15.3263 19.7175 15.17 19.8113C15.0125 19.9063 14.9663 19.9375 14.9813 20C14.9975 20.0925 15.0763 20.0925 15.2 20.0788C15.3725 20.0475 16.3425 19.61 16.3888 18.545C16.435 17.2025 15.1537 15.7038 12.8725 15.7325C11.935 15.75 11.34 15.8275 10.9188 16C10.8903 15.9559 10.8528 15.9184 10.8087 15.89C9.4025 14.3738 6.7925 13.3113 6.9025 11.2963C6.93375 10.5613 7.19875 8.625 11.9025 6.28125C15.7625 4.35875 18.8413 4.89125 19.3738 6.0625C20.1363 7.7325 17.7312 10.8438 13.7162 11.2963C12.185 11.4688 11.3887 10.875 11.1837 10.655C10.9662 10.42 10.9363 10.405 10.8575 10.4538C10.7313 10.5163 10.81 10.7188 10.8575 10.845C10.9825 11.1563 11.4663 11.705 12.3113 11.985C13.045 12.22 14.8413 12.3588 16.9988 11.5163C19.42 10.58 21.31 7.96875 20.7638 5.78125L20.8387 5.85125V5.85125Z" fill="black"/>
</svg>
